# xmcd CD database file
#
# Track frame offsets:
#	150
#	11865
#	31396
#	52237
#	67112
#	85747
#	104232
#	121653
#	145984
#	161056
#	177648
#	201338
#	217002
#	237309
#	255032
#	269942
#	292347
#	305772
#
# Disc length: 4295 seconds
#
# Revision: 0
# Processed by: cddbd v1.5.2PL0 Copyright (c) Steve Scherf et al.
# Submitted via: CDex 1.51
#
DISCID=2b10c512
DTITLE=Jazz Lips - Hotter Than That - CD5
DYEAR=2005
DGENRE=Jazz
TTITLE0=Bugle Call Rag
TTITLE1=Alabama Bound
TTITLE2=Sobbin' Blues
TTITLE3=Hindustan
TTITLE4=Blues In The Air
TTITLE5=Alligator Crawl
TTITLE6=Piggly Wiggly
TTITLE7=Really The Blues
TTITLE8=Heart Full Of Rhythm
TTITLE9=Joe Avery's Piece
TTITLE10=Melancholy Blues
TTITLE11=Yama Yama Man
TTITLE12=Black Stick
TTITLE13='Ti Bon Ange
TTITLE14=King Of The Zulus
TTITLE15=Old Fashoned Love
TTITLE16=Whistling Rufus
TTITLE17=Alabama Jubilee
EXTD=YEAR: 2005
EXTT0=
EXTT1=
EXTT2=
EXTT3=
EXTT4=
EXTT5=
EXTT6=
EXTT7=
EXTT8=
EXTT9=
EXTT10=
EXTT11=
EXTT12=
EXTT13=
EXTT14=
EXTT15=
EXTT16=
EXTT17=
PLAYORDER=
